# xmcd CD database file
#
# Track frame offsets:
#	150
#	23443
#	45555
#	62076
#
# Disc length: 1134 seconds
#
# Revision: 1
# Processed by: cddbd v1.5.1PL0 Copyright (c) Steve Scherf et al.
# Submitted via: CDex 1.51
#
DISCID=26046c04
DTITLE=川嶋あい - 「さよなら」「ありがとう」 〜たった一つの場所〜
DYEAR=2004
DGENRE=JPop
TTITLE0=「さよなら」「ありがとう」 〜たった一つの場所〜
TTITLE1=未来への道
TTITLE2=手のひらを太陽に
TTITLE3=「さよなら」「ありがとう」 〜たった一つの場所〜 [Instrumental]
EXTD=YEAR: 2004
EXTT0=
EXTT1=
EXTT2=
EXTT3=
PLAYORDER=
